<svg xmlns="http://www.w3.org/2000/svg" xmlns:xlink="http://www.w3.org/1999/xlink" width="500" height="500" viewBox="0 0 414 414.047">
  <defs>
    <style>
      .cls-1 {
        fill: #fff;
      }

      .cls-2 {
        opacity: 0.2;
        clip-path: url(#clip-path);
      }
    </style>
    <clipPath id="clip-path">
      <path id="Path_116" data-name="Path 116" class="cls-1" d="M329.249,402.233l27.721,5.414-1.12,6.3h5.04l12.087-68.93,2.8,68.93h4.994l-.933-23.241,12.694-.373,1.307,23.615h2.473l-1.307-23.661L414,389.772v-4.947l-15.634.42-1.213-8.354L414,377.4v-2.473l-17.221-.513-2.333-16.194,10.174-11.2,9.334,5.927v-2.987L406.3,345.11l7.654-8.447v-3.687L393.932,355.1c-1.073-6.114-3.733-21.7-4.854-28.281L414,331.063v-5.04l-12.414-2.147,2.94-18.528c3.314.7,6.487,1.353,9.474,1.96v-5.087l-7.094-1.447L414,291.767v-8.074l-12.507,15.961-16.194-3.36,6.907-48.442,21.748,3.92v-8.4l-2.287-.42,2.287-15.634V193.249l-2.52,17.267-23.148-5.6c1.167-6.114,4.247-22.308,5.414-28.468l20.254,3.827v-5.04l-13.067-2.473L411.2,116.619l2.754.513v-8.447l-6.767-1.26,1.82-12.647,4.947-1.027v-2.52l-4.574.933,4.014-27.908.56.093V2L412.46,12.314l-15.494.933-.7-13.3h-2.473l.747,13.487-13.161.793L380.772-.053h-4.994l.607,14.607-18.247,1.12L360.891-.053h-5.04l-2.66,15.261L325.656,7.88,327.1-.053h-8.4l-2.8,15.214-18.948,3.22L294.621-.053h-4.994l2.38,19.228L273.48,22.3,265.546,6.107c4.714-1.353,12.647-3.687,21.234-6.16H269L263.353,1.58l-.84-1.633h-9.24l1.913,3.92c-2.893.793-6.767,1.867-10.594,2.94-.607-1.68-1.447-4.154-2.427-6.907h-2.613l2.66,7.56c-4.62,1.26-8.727,2.427-10.361,2.893L219.9,6.62,220.7-.053h-2.52l-.653,5.927L202.263,1.16l.42-1.213H197.41L195.4,5.407,182.335-.053h-4.574L173.7,10.354,154.987,3.867q1.19-1.96,2.24-3.92h-5.787a103.256,103.256,0,0,1-9.1,13.487L140.1-.053h-5.04l.607,3.734L123.206,11.1,116.626-.053h-2.893L129.18,26.128c-.373.233-.747.513-1.073.747-4.947,3.22-11.387,5.6-18.761,7.374l2.473-34.3h-2.473l-2.52,34.908c-2.707.607-5.507,1.073-8.4,1.54L95.718-.053H90.724l.887,12.321L61.79,8.627,61.6-.053H56.609l.187,8.12-6.86-.84L42.562-.053H39.015l6.907,6.767L20.814,3.68l.467-3.734h-2.52l-.42,3.407L8.354,2.14,8.68-.053H.28L0,2V64.35l21.468,3.92L25.155,86,0,91.231v2.52l7.514-1.587L9.94,110.552,0,108.685v8.447l10.921,2.053L2.613,175.608,0,175.142v5.04l1.867.373L0,193.249v34.068l6.767-45.829,23.381,4.387-6.207,61.79L0,243.372v8.4l21.981,3.92L0,283.694v8.027l21.794-27.815-5.974,41.582L0,302.221v5.087c6.394,1.307,11.761,2.427,15.121,3.127L12.6,328.169,0,326.022v5.04l1.493.28L0,332.929v3.687l4.387-4.854,7.514,1.307-3.22,22.4L0,349.963v2.94l8.307,5.274L5.88,375.071,0,374.885v2.473l5.507.187L4.48,384.639l-4.48.14v4.947l3.78-.093L.28,413.9H8.634l3.407-23.894,9.474,1.26-2.8,22.634h2.52l1.913-15.494L39.015,413.9h3.547L23.568,395.279l.467-3.687,32.155,4.294.42,18.014H61.6l-.42-17.361,28.561,3.827.98,13.534h4.994l-.513-6.954,14.841-2.52-.7,9.52h2.473l.187-2.847,1.68,2.847h2.893l-4.247-7.234.187-2.707,20.3-3.453,2.24,13.394h5.04l-7-42,35.375,2.707c-3.874,11.854-9.567,26.415-17.034,39.3h5.787a185.217,185.217,0,0,0,8.167-16.8l16.427,6.3-4.107,10.5h4.574l-1.633-.7,8.26-21.141,15.121,3.547L197.41,413.9h5.274l12.6-34.628,6.86-.84-3.967,35.515h2.52l1.587-14.187,11.247-3.08,6.067,17.268h2.613c-2.333-6.58-5.227-14.841-6.3-17.921l7.56-2.053,9.8,19.974h9.24l-4.2-8.587,32.948-10.22-1.82,12.881L269,413.9H286.78c.933-.28,1.82-.513,2.754-.793l.093.793h4.994l-.28-2.193c10.127-2.94,20.114-5.834,26.088-7.607l-1.82,9.8h8.4Zm-4.48-21.468-25.948-3.547,2.613-18.341,26.508,4.527ZM269.28,348.377l1.773-10.081,27.581,5.18-1.4,9.66Zm27.255,9.66-1.12,7.84-18.248-2.613,1.82-8.167Zm-92.078-9.8-12.227-.327,1.867-10.547,10.36,4.994a19.629,19.629,0,0,0-.233,2.893A12.706,12.706,0,0,0,204.457,348.237Zm3.78,8.4a16.581,16.581,0,0,0,2.193,2.24L201.1,371.151l-8.82-14.981Zm-.653-21.934-23.568-11.34,25.621-9.381,3.874,15.447A18.261,18.261,0,0,0,207.583,334.7ZM44.1,308.428l3.033-6.814,37.708-9.007-5.367,18.808Zm34.162,7.887-2.52,12.927-9.194-2.333.653-11.527ZM25.761,42.462c8.354.607,18.108,1.167,28.281,1.307l-.093,2.473-29.4,9.1Zm-10.174-5.88,2.8-15.727,27.021,3.407c-.28,2.94-1.027,10.314-1.4,14.187C33.182,38.028,23.288,37.328,15.587,36.582ZM79.664,69.717l3.22,28.608c-7.374.84-29.541,3.407-37.428,4.34l3.454-30.008ZM53.809,48.9,53.016,67.29l-6.254.607-5.787-1.073L39.3,53.383Zm29.308,51.9,1.167,10.314-40.415,4.947,1.26-10.874Zm170.248-2.007-4.574,16.194-18.854,7.28c-2.753-7.7-4.947-15.261-6.16-19.834Zm-25.9-15.634,14.467-1.773,1.587,10.267-14.887,1.82Zm71.917,105.332-17.5-4.107,8.727-27.3,15.027,2.8C304.561,164.921,301.9,177.1,299.381,188.489Zm8.727-28.188,18.481,3.454-24.174,22.588ZM143.04,165.995l28.608-2.707,3.127,12.414-34.255,1.027Zm0-21.608,26.181,9.147,1.213,4.854-25.248,2.38ZM273.2,184.336l-4.667,14.607-20.394-8.074L253.6,177.2Zm-18.714-9.427,4.714-11.854c7,4.013,13.814,7.56,17.734,9.52l-2.987,9.38Zm-13.347,20.114-9.567-8.12L243.1,170.568l6.02,4.387Zm-.98,2.427-.467,1.167L215.61,200.67l-12.087-16.1,11.994-8.074Zm-26.975,4.2-20.348,11.714-4.667-18.434,13.3-8.914C203.663,188.956,210.757,198.383,213.184,201.65Zm-11.2-19.041c-1.027-1.307-2.987-3.78-4.387-5.554l10.034-7.234,5.88,4.994Zm-2.053,1.4-12.414,8.354-1.727-6.767,9.8-7.047Zm-13.394,38.175L164.648,215.7l16.427-15.074Zm-24.688-7.327-28.235-8.4L139.96,179.2l35.468-1.027,4.994,19.741ZM131.14,162.121l-3.874-32.808,11.061-1.633L142.714,161Zm-.233,4.994,9.52-.887-4.574,19.648-9.427-3.033Zm4.387,21.188-4.06,17.454-10.407-3.08,4.947-17.408Zm-2.707,23.054-13.441,36.588-9.987-4.154,10.314-36.355Zm2.38.7,12.927,3.827L142.34,232.5c-3.687-1.12-10.547-3.267-13.347-4.154Zm11.294,24.361c2.52.887,6.907,2.427,12.087,4.247l-8.167,18.714-11.107-1.307Zm.747-2.38,5.6-16.754,19.181,5.694-4.62,18.108Zm27.161-10.314,13.721,4.107,5.694,22.541L169.5,241.925Zm19.274-7.84,10.594-6.114,5.18,18.481L195.683,224.8Zm12.834-7.42,9.147-5.274,23.288-2.007L226.2,232.5,212.064,228.9Zm30.8,10.22,11.154,3.733-4.014,14.794-13.161-3.36Zm.887-2.333,9.24-23.148,20.534,8.12-7.234,22.541Zm30.661,9.334,20.814,3.733-17.454,29.121-10.734-9.754Zm2.567-7.934,9.94-31.035,17.734,4.2c-1.773,8.167-3.407,15.541-4.154,19.088L279.22,219.2Zm29.821-25.015,7.42,9.054-10.78,6.394Zm-22.541-24.921c-8.26-4.2-27.021-14.094-35.655-21.514a14.324,14.324,0,0,1-1.213-1.167l19.974-17.128,22.4,22.634Zm-30.1-35-6.534-12.507,7.7-2.987,8.447,7.187Zm-1.96,1.68-7.794,6.72a88.385,88.385,0,0,1-7.84-16.567l8.727-3.36ZM239.6,150.081a111.619,111.619,0,0,0,15.261,10.454l-4.76,11.994-23.008-16.661,10.641-7.654A23.47,23.47,0,0,0,239.6,150.081Zm1.493,18.994-11.434,16.194L209.73,168.375l15.214-10.967Zm-30.335-7.56-4.434-14.747,11.014-5.274,4.62,11.994Zm-5.18-17.174L202.03,132.58l7.794-10.594,6.627,17.127Zm.933,20.208-21.981,15.821-7.934-31.5,23.848-4.574Zm-30.568-18.061-9.334-37.1,22.448-2.753,10.64,35.235Zm-7.467,4.154-25.808-9.007L140.8,127.306l21-3.127Zm-41.489-23.8-1.493-12.414,32.808-4.014,2.894,11.387Zm-2.94-20.581-2.52-10.734,35.048,1.633,1.307,4.947Zm1.773,53.063-23.568-27.068-.98-14.841,19.274-2.38Zm-25.481-50.169-1.68-10.641c6.674-1.027,14.187-2.193,17.874-2.753l2.613,11.107Zm-1.54,8.54.933,13.954-10.454,1.027.373-13.814Zm1.727,16.334,24.921,28.608-37.055,3.5.793-31.035C92.544,134.82,98.565,134.213,100.525,134.026Zm25.061,33.6-20.441,71.917L95.111,233.9l21.328-65.43ZM107.759,248.6l25.575,10.687-2.847,8.54-24.968-11.434Zm13.627.327,6.674-18.2,13.441,4.154-6.58,19.694Zm16.8,11.481,11.294,1.353-2.567,16.754L134.92,270.3Zm13.907.607,8.587-19.554c6.767,2.38,14.514,5.087,21.188,7.42l-7.514,38.315-9.52,3.64-15.681-10.781Zm37.8,25.528,4.2,15.074-17.688,7.374L168.335,294.8Zm-12.787-.42,7.14-36.448c4.06,1.4,7.607,2.66,10.127,3.547l6.067,23.988Zm19.974-55.863,27.628,7.047-7.14,9.427-15.261,4.34ZM227.371,238l26.088,6.674-29.075,14.794-4.62-11.434Zm19.228-.233,3.967-14.607,9.194,3.08-4.434,13.767ZM260.413,251.4l23.334,21.141-1.727,3.314c-11.807-2.287-22.168-4.247-27.721-5.32Zm13.441,8.82,18.2-30.335,12.6,2.287-19.788,38.082Zm33.415-27.628,4.014.747-7.84,46.622c-6.3-1.213-12.741-2.473-18.9-3.64Zm1.4,31.408,20.441,4.9-2.473,15.541c-6.16-1.167-13.3-2.567-20.721-3.967Zm3.08,22.634,13.861,2.66-6.16,25.668-11.434-2.333Zm16.334,3.127,12.974,2.473-4.807,26.088-14.327-2.894Zm.98-4.854,2.473-15.634,13.534,1.073-3.127,17.034C338.91,286.774,334.429,285.934,329.063,284.907Zm2.847-18.107,1.68-10.454,13.721,1.913-1.773,9.66Zm2.053-12.927,2.52-16.007,14.047,2.52-2.847,15.4Zm-4.48,12.554-20.394-4.854,4.667-27.768,20.348,3.64Zm-42.8-45.922,24.921-14.794L330.043,228.3Zm27.068-16.1,32.388-19.274,7.234,8.82L320.942,213.13Zm-3.173-3.874-8.54-10.454,27.3-25.435L342.97,181.3Zm19.741-54.183-19.414-2.567c.607-3.687,1.167-7.094,1.447-8.867l19.181,3.874Zm-.373,2.473-1.633,10.221-19.274-3.64c.373-2.24.933-5.694,1.493-9.194Zm-23.381,6.16-14.421-2.707,6.44-20.114,11.341,2.287Zm-20.861-9.66-20.348-20.581,15.914-13.674,13.207,6.767ZM259.9,122.873l-8.727-7.42,4.807-16.988,29.681-3.64a18.137,18.137,0,0,0,1.82,4.387ZM248.465,91.044,244.545,65.8l16.848-2.613,3.967,25.808Zm-13.721,53.2-10.687,7.7L211.6,119.652l8.54-11.574C222.984,118.066,228.258,134.4,234.745,144.247Zm-33.6-14.607-7.094-23.568,24.735-3.033c.14.607.327,1.26.513,1.96ZM197.223,97.3l-7.98.98L175.662,76.484l21.608-3.36ZM186.536,98.6l-20.721,2.52,8.214-22.588Zm-24.688-1.073L150.741,54.643,174.448,63Zm-5.88-2.893-19.274-.887L131.56,64.77l16.287-1.54Zm-21.841-1.027L120.966,93l-6.207-26.648L129.04,65Zm-18.154-.28L98.238,96.038,96.558,85.4l17.034-2.287ZM97.865,109.479l-8.634,1.073-1.167-10.407c1.913-.28,4.854-.747,8.12-1.26Zm-9.614,61.7,25.481-2.427L100.758,208.51l-13.347-5.46Zm11.761,39.715L92.778,233.1l-6.067-.98.7-26.368Zm-8.027,24.595-5.834,17.921.467-18.808C88.391,234.878,90.584,235.251,91.984,235.485Zm2.333.84,10.127,5.694-10.734,37.8-8.167-3.92.373-13.767Zm10.547,22.494,24.828,11.387L121.946,293.4,98.285,282.014Zm29.215,13.907,27.955,19.181L137.953,301.1l-11.527-5.554Zm3.127,37.2,22.074,10.641-5.74,10.734-19.6-4.247Zm6.907-5.834L166,295.734l8.12,14.234-9.567,3.967Zm50.682-.047,3.22,11.574-17.081,6.254-13.394-6.487Zm-2.567-18.388,9.38-3.594,7.42,29.448-8.727,3.173ZM202.963,253.5l14.654-4.154,14.047,34.675L212.2,290.087Zm22.354,8.26L252.9,247.712l-14.7,45.876Zm27.441,13.534,23.615,4.527-4.527,25.528-26.975-5.46Zm23.1,35.935,26.6,5.367-2.053,14.514-25.715-13.3Zm.84-4.9,4.527-25.575,25.668,4.947-3.734,25.995Zm30.661,11.247,28,5.647-2.754,15.027-27.441-5.414Zm31.175,33.975,11.994,1.54L346.8,372.178l-11.807-1.493Zm.467-2.427,5.507-29.961,12.274,2.1-5.74,29.4Zm6.394-34.862,3.734-20.394c3.874.793,10.267,2.147,17.828,3.687l-4.434,19.6Zm4.667-25.248,4.62-25.2,29.635,4.154-3.92,27.348Zm3.687-56.469-19.974-3.593-11.294-13.814,32.435-19.181,4.807,5.88Zm10.594-28.375,20.581,4.994c-1.167,5.787-4.107,20.768-5.554,28l-20.721-3.733Zm-3.36-8.68-24.361-29.821,29.121,5.46Zm-27.815-35.515,4.9-30.521,34.768,5.04-6.207,31.782Zm18.667-33.555,2.847-20.394,22.868,4.294-3.78,19.274Zm1.68-29.075-9.38-1.773,2.987-16.894L356.6,79.7Zm-1.26,8.214c-.793,5.694-2.193,15.821-2.847,20.488l-10.5-1.54,3.36-20.861ZM339.236,94.685l-17.921-3.36c0-.373.047-.7.047-1.073a18.734,18.734,0,0,0-1.493-7.234l16.894-10.174,4.62,9.94Zm-1.913,8.074-5.367,33.555-32.575-6.534,6.954-21.7A18.135,18.135,0,0,0,318.889,99.3Zm-34.115-2.707a9.847,9.847,0,1,1,9.847-9.847A9.849,9.849,0,0,1,303.208,100.051Zm-5.414,7.467-2.567,7.934-11.947-6.114,7.234-6.207A18.484,18.484,0,0,0,297.794,107.519Zm-12.274-21L267.88,88.664,263.866,62.81l18.854-2.94,8.307,16.987A18.148,18.148,0,0,0,285.52,86.517ZM240.485,61.41l-1.26-9.894L275.253,44.7l5.134,10.5Zm-.84,5.18,1.913,12.367-14.374,1.727-1.353-11.947ZM226.2,93.8l-26.461,3.22.047-24.268L223.4,69.063ZM200.583,67.617l8.494-30.428,10.454,3.967L213.51,65.61Zm-2.707.42L176.642,71.35l14.887-40.789,15.214,5.74Zm-22.588-7.374-12.181-4.294L167.4,41.015l13.067,5.414Zm-14.514-5.134L149.994,51.7l-5.227-20.161,20.348,8.494Zm-14.234,2.8L112.565,61.6l-1.54-10.967,31.828-6.347ZM112.985,80.684l-16.847,2.24L93.8,68.363l15.961-1.54Zm-18.9,5.04,1.727,10.687-7.98,1.213L86.618,86.7Zm-7.794-1.447L84.611,69.25l6.72-.653,2.333,14.654Zm-1.68,35.142-.373,13.674c-3.967.373-11.9,1.073-15.121,1.353l.513-13.207ZM64.076,200.53l-.42,11.2c-2.8-.093-9.474-.327-12.274-.467l.513-11.621Zm-11.247-5.74L65.1,174.955l-.793,20.628ZM63.563,214.2l-.513,13.3c-4.06-.793-8.26-1.633-12.274-2.427l.513-11.341Zm-.7,15.821L60.81,246.685l-12.974-3.36L50.449,227.6Zm-.7,25.995,7.234,1.82-.747,9.847-7.514-3.594Zm.327-2.473,2.847-23.054L71.4,231.7,69.63,255.366Zm11.294-21.374,7.887,1.54-1.027,39.762-9.567-4.62Zm-8.26-4.154.513-13.674c3.22.187,11.854.7,16.1.933l-.42,15.914C78.45,230.538,72.337,229.324,65.523,228.018Zm.607-16.147.42-11.154,15.914,1.12-.28,10.921Zm.653-16.1.933-24.314,15.587-1.12-.7,26.555Zm1.027-26.835.373-9.754,15.4.42-.233,8.214Zm.56-14.747.653-17.267,15.121-1.353-.467,19.041ZM44.662,124.319,67.2,121.566l-.513,13.021-23.054-.233ZM66.6,137.013l-.653,17.081-24.221-.607,1.68-16.661Zm-.887,22.074-.42,10.781-7.934,12.787L40.882,161.794l.327-3.407ZM56,184.942l-5.974,9.614-12.321-.887,2.847-28.328ZM49.422,199.5,48.3,224.611c-5.414-1.073-10.267-2.007-13.441-2.66L37.2,198.616ZM33.508,152.321l-9.987-1.4L28.468,122.5l7.887,1.493Zm1.073,72.15,13.441,2.66-4.76,28.375-11.247-5.414Zm12.881,21.281,13.067,3.407-1.68,13.814-13.207-6.347Zm12.554,26.975L86.8,285.654,85.591,289.9l-37.2,8.867Zm29.075,14,13.161,6.347-5.787,19.788-14.514-1.213Zm17.688,8.54,11.341,5.46L109.812,335.4l-14.281-1.493Zm19.694,44.382L125.259,346l-33.042-.933,2.567-8.727Zm-14.187-4.014,8.12-33.835,12.181,5.88-5.647,29.495Zm21.188-6.114,35.188,7.607-1.26,10.08-37.1-1.073Zm22.588,2.333,5.46-10.174,12.227,5.88-4.34,7.187Zm15.167,4.714,4.807-7.887,15.681,7.56-2.053,11.574-19.788-.56Zm51.056-1.167a9.847,9.847,0,1,1-9.847,9.847A9.849,9.849,0,0,1,222.284,335.4Zm4.947-7.56a17.36,17.36,0,0,0-4.947-.7h-.747l-8.774-34.675,19.788-6.16,4.434,10.967Zm16.1-23.195,27.628,5.6-.42,2.427L236.985,334.7a19.345,19.345,0,0,0-2.427-2.754Zm26.6,11.387-5.554,31.5L240.3,343.43a17.458,17.458,0,0,0-2.007-6.58Zm6.627,38.6-1.867,8.26-22.121-3.173,4.247-8.4Zm-5.087-18.808,2.754-15.447,25.808,13.347-1.027,7.327ZM328.829,358.5l-26.695-4.574,2.66-18.668,27.3,5.367Zm12.694,41.022-11.387-2.24,4.434-24.174L346.33,374.6Zm16.287,3.22-11.434-2.24,7.234-37.2,10.687,2.38Zm6.954-39.529-10.641-2.333,7.56-38.782,9.987,1.727ZM395.8,385.245l-16.194.467-.42-10.687L392.3,360.557C393.092,366.2,395.006,379.6,395.8,385.245Zm-3.967-27.861-12.787,14.094-1.913-46.762,9.334,1.587Zm7.794-53.016-2.987,18.668L365,317.622l4.387-19.554C378.765,300.028,389.592,302.268,399.626,304.368Zm-14.981-38.875L355.1,261.386l3.593-19.508,28.608,5.134Zm9.754-25.668-12.6-2.24,2.567-13.021,12.367,2.473Zm12.367,2.24-9.94-1.773,2.38-12.787,9.427,1.913Zm3.92-26.648-1.68,11.527-24.128-4.854,2.427-12.367Zm-24.828-11.154-20.581-4.994,5.32-27.255,20.674,3.874Zm12.6-32.015-26.928-5.04,4.48-23.054,26.6,5.367ZM412.133,14.834l-2.847,19.928-11.107-.187-1.027-18.808ZM398.039,39.569l10.5.187L402.893,79.1,394.4,79.05Zm-3.827,41.955,8.354.047-3.5,24.361-7-1.307Zm-4.62,22.634-4.667-.887-2.613-63.983,13.207.233Zm5.04-88.251,1.027,18.621-13.534-.233-.7-17.548Zm-12.181,95.3,26.321,4.947-5.694,30.895-26.6-5.367Zm-2.52-8.867-23.941-4.48c.933-5.414,2.52-14.654,3.08-17.874l20.068,2.147ZM379,79.564,347.5,76.2l2.333-13.441,28.421-.28Zm-21.281-61.37,18.761-1.167.747,18.481-22.541-.187Zm-3.454,19.6,23.054.187.887,22.074-27.908.28ZM325.189,10.354l27.535,7.327-2.987,16.894-27.581-8.12Zm24.174,26.695L342.83,74.2,321.875,28.928Zm-29.121.187L335.69,70.557,318.7,80.777a18.4,18.4,0,0,0-5.414-5.647Zm-4.854-19.461L305.355,72.283c-.607-.047-1.167-.093-1.773-.14l-6.347-51.336Zm-23.054,3.874L298.681,72.7a1.1,1.1,0,0,1-.373.093L274.647,24.635ZM257.472,8.44l16.661,33.975-16.427,3.127L246.272,11.567Zm-13.627,3.78c2.38,7,9.474,28.188,11.387,33.742L238.9,49.042l-4.34-34.255ZM235.538,62.2l-19.414,3.033,5.694-23.148,11.714,4.434ZM233.2,43.722,209.87,34.855l5.507-12.041L231.291,28.6Zm-14.281-32.2,10.641,3.313,1.4,10.967-14.7-5.32ZM200.536,5.827l16.007,4.947-2.987,9.987-5.974,13.161-15.214-5.787ZM179.769,1.58l14.794,6.16-3.173,8.727-15.354-5.32Zm-5.32,14.281,15.214,5.274L181.309,44.1,168.1,38.589ZM152.281,8.207l19.834,6.86-6.347,22.588L143.927,28.6l-1.867-7.187A96.47,96.47,0,0,0,152.281,8.207Zm-27.815,5.04,11.667-6.954,2.007,12.041a62.49,62.49,0,0,1-6.907,6.347Zm6.347,17.828a54.184,54.184,0,0,0,7.187-5.6L142.247,41.9,110.7,48.2l-1.213-8.774C117.839,37.422,125.166,34.715,130.813,31.075ZM107.059,39.9l3.08,21.934L77.1,65,75.464,43.582A212.48,212.48,0,0,0,107.059,39.9ZM92.031,17.354,93.478,37.1a267.236,267.236,0,0,1-30.941,1.727L61.93,13.714ZM72.944,43.629l1.68,21.561L55.536,67.01l.98-23.194C61.93,43.862,67.437,43.815,72.944,43.629Zm-23.661-31.5,7.654.933.233,10.174-9.054-1.12C48.4,19.874,48.956,15.067,49.282,12.127Zm7.98,13.627.327,13.021c-3.734-.047-7.467-.093-11.061-.233l1.353-14ZM7.654,7.04l39.2,4.76-1.167,9.987L6.254,16.841ZM5.88,19.314l10.034,1.26-2.8,15.774c-3.967-.373-7.187-.747-9.52-1.027ZM21.234,63.183.14,59.31,2.893,40.269c4.247.513,11.434,1.307,20.394,2.007ZM24.221,58l12.647-3.92,1.54,12.227L23.661,63.6Zm-.14,10.781,19.834,3.64-5.04,43.635-5.227-.98ZM9.987,91.7l15.634-3.267,5.414,26.088-18.528-3.5Zm-2.52,84.844,8.307-56.423,10.267,1.913-9.8,56.143Zm11.247,2.1,4.434-25.295,10.174,1.447-2.613,26.088Zm12.181,80.037,24.641,11.854L38.875,307.962,24.034,306.7Zm-7.56,52.969L62.3,314.962l-.653,11.527-40.882,3.22Zm38.129,17.361-.887,15.167L50.4,343.9v-14Zm-41.069,3.22,27.535-2.193v13.721l-29.075-.793Zm14.7,55.863-22.308-2.987,3.36-23.428,21.094,2.893ZM16.521,359.2l1.167-7.98,20.768.607-.933,10.314Zm28.608,30.241-7.56-1.027,2.147-23.474,7.794,1.073Zm2.613-25.9-7.84-1.073.98-10.547,8.027.233ZM58.85,391.266,50.076,390.1l2.38-23.614,8.074.467Zm-6.16-27.255L53.9,352.25l32.388.933.933,12.787Zm8.634,27.581,1.727-24.5,24.361,1.4,1.96,26.881Zm25.761-46.669-21.514-.607.84-14.841,23.428,5.974ZM78.17,329.849,80.784,316.5l14.281,1.213-4.48,15.307Zm13.114,23.474,33.882.98,1.447,8.727-34.395,2.94ZM92.358,368.4l34.628-2.94,2.1,12.647-35.748,3.874Zm2.66,36.075-1.307-17.5,36.168-3.92,2.52,15.027Zm37.662-35.095L130.206,354.4l43.775,1.26c-.933,3.78-2.52,9.567-4.714,16.521Zm50.076,31.688-16.381-6.254c1.027-2.473,2.007-4.9,2.893-7.327l17.221,4.06Zm-11.761-18.248a274,274,0,0,0,8.074-27.021l10.267.28,10.081,17.174-10.454,13.767Zm34.768,8.167-14.187-3.313,9.707-12.787,8.96,3.687Zm5.367-14.747-8.26-3.407,9.474-12.461a16.633,16.633,0,0,0,3.874,1.913Zm5.134.467,4.854-13.347a9.381,9.381,0,0,0,1.167.047,18.045,18.045,0,0,0,5.74-.933l5.88,11.947Zm6.3,20.394,2.1-18.994,10.361-1.353,7.327,14.934Zm20.161-23.474-7.654-15.587a17.98,17.98,0,0,0,5.04-9.614L254.3,350.85Zm14.467,29.448-4.34-8.82L267.32,390.1l2.333,9.054Zm34.442-10.687-19.6,6.067-2.333-9.007,23.288-6.674Zm2.147-14.981-43.122,12.321-6.534-13.3,7.28-14.374,43.682,6.3Zm.84,29.075,3.454-24.315,12.134,1.68-2.847,18.948Zm26.835-7.84-11.434,3.313,2.707-17.874,11.154,1.54Z" transform="translate(0 0.1)"/>
    </clipPath>
  </defs>
  <g id="Mask_Group_6" data-name="Mask Group 6" class="cls-2">
    <rect id="Rectangle_386" data-name="Rectangle 386" class="cls-1" width="500" height="500" transform="translate(0 0.005)"/>
  </g>
</svg>
