<?xml version="1.0" encoding="utf-8"?>
<!-- Generator: Adobe Illustrator 22.0.1, SVG Export Plug-In . SVG Version: 6.00 Build 0)  -->
<svg version="1.1" id="Layer_1" xmlns="http://www.w3.org/2000/svg" xmlns:xlink="http://www.w3.org/1999/xlink" x="0px" y="0px"
	 viewBox="0 0 2000 2000" style="enable-background:new 0 0 2000 2000;" xml:space="preserve">
<style type="text/css">
	.st0{fill:#7E9BA8;}
	.st1{display:none;}
	.st2{display:inline;fill:none;stroke:#00558A;stroke-width:50;stroke-miterlimit:10;}
	.st3{display:none;fill:none;stroke:#00558A;stroke-width:50;stroke-miterlimit:10;}
	.st4{fill:#333333;stroke:#1A1A1A;stroke-miterlimit:10;}
	.st5{fill:none;stroke:#333333;stroke-width:15;stroke-miterlimit:10;}
	.st6{fill:#333333;}
	.st7{fill:none;stroke:#1A1A1A;stroke-miterlimit:10;}
	.st8{fill:none;stroke:#333333;stroke-width:35;stroke-miterlimit:10;}
</style>
<path class="st0" d="M1000,447.8l-394.2,45.2L146.1,104.9c-9.1-7.7-23.2-2.8-25.6,8.9L67.2,380.1c-5.4,26.9-4.2,54.7,3.3,81
	l133.7,464.7l-43.7,267c-5.1,31.2-1.5,63.1,10.5,92.3l45.1,110.2c91,222.2,283.1,387.3,516.4,444l96.6,23.5
	c116.1,28.2,237.4,28.2,353.5,0l96.6-23.5c233.4-56.7,425.4-221.8,516.4-444l45.1-110.2c12-29.2,15.6-61.2,10.5-92.3l-43.7-267
	l133.7-464.7c7.6-26.3,8.7-54.1,3.3-81l-53.4-266.3c-2.4-11.7-16.4-16.6-25.6-8.9L1406,492.9L1000,447.8z"/>
<g class="st1">
	<ellipse class="st2" cx="1480.3" cy="1069.1" rx="342.3" ry="330.6"/>
</g>
<line class="st3" x1="1145" y1="1080.8" x2="883" y2="1080.8"/>
<g class="st1">
	<ellipse class="st2" cx="527.5" cy="1069.1" rx="342.3" ry="330.6"/>
</g>
<polygon class="st4" points="1005.9,1355.8 913.2,1479.5 1005.9,1547.8 1105.5,1478.2 "/>
<line class="st5" x1="1005.9" y1="1493.9" x2="1005.9" y2="1693.8"/>
<polygon class="st4" points="1006.9,1658.3 805,1741.3 1005.9,1693.8 1221.1,1749.5 "/>
<polyline class="st4" points="1171.1,1730.6 1260.3,1677.9 1221.1,1749.5 "/>
<polyline class="st4" points="863,1727.6 747.8,1677.9 805,1741.3 "/>
<g>
	<ellipse class="st6" cx="650.6" cy="1067.5" rx="143.4" ry="221.5"/>
	<ellipse class="st7" cx="650.6" cy="1067.5" rx="143.4" ry="221.5"/>
</g>
<g>
	<ellipse class="st6" cx="1365.9" cy="1067.5" rx="141.3" ry="218"/>
	<ellipse class="st7" cx="1365.9" cy="1067.5" rx="141.3" ry="218"/>
</g>
<polygon class="st4" points="1009.4,1825.9 913.2,1806.5 1009.1,1841.5 1105.5,1805.2 "/>
<polygon class="st4" points="1847.9,195.7 1633.5,491.2 1649.5,687.3 1811.2,564.9 "/>
<polygon class="st4" points="171.7,195.7 220,568.3 382.5,673.6 387.6,474 "/>
<polygon class="st8" points="1653.6,843.8 1271.7,843.8 1080.8,1067.5 1271.7,1291.2 1653.6,1291.2 1844.5,1067.5 "/>
<polygon class="st8" points="743.3,843.8 362.3,843.8 171.7,1067.5 362.3,1291.2 743.3,1291.2 933.8,1067.5 "/>
<line class="st8" x1="917" y1="1058.4" x2="1093" y2="1058.4"/>
</svg>
